<?xml version="1.0" encoding="utf-8"?>
<!-- Generator: Adobe Illustrator 21.0.2, SVG Export Plug-In . SVG Version: 6.00 Build 0)  -->
<!DOCTYPE svg PUBLIC "-//W3C//DTD SVG 1.1//EN" "http://www.w3.org/Graphics/SVG/1.1/DTD/svg11.dtd">
<svg version="1.1" xmlns="http://www.w3.org/2000/svg" xmlns:xlink="http://www.w3.org/1999/xlink" x="0px" y="0px"
	 viewBox="0 0 322.2 92" style="enable-background:new 0 0 322.2 92;" xml:space="preserve">
<style type="text/css">
	.st0{display:none;}
	.st1{display:inline;fill:none;stroke:#CDE3F6;stroke-width:3;stroke-miterlimit:10;}
	.st2{display:inline;fill:none;stroke:#FBE8E6;stroke-width:3;stroke-miterlimit:10;}
	.st3{display:inline;}
	.st4{fill:none;stroke:#71A9DB;stroke-width:3;stroke-linecap:round;stroke-linejoin:round;}
	.st5{fill:none;stroke:#71A9DB;stroke-width:3;stroke-linecap:round;stroke-linejoin:round;stroke-dasharray:1.9208,5.7624;}
	.st6{fill:none;stroke:#F38D86;stroke-width:3;stroke-linecap:round;stroke-linejoin:round;}
	.st7{fill:none;stroke:#F38D86;stroke-width:3;stroke-linecap:round;stroke-linejoin:round;stroke-dasharray:1.9208,5.7624;}
	.st8{display:inline;fill:none;stroke:#71A9DB;stroke-width:3;stroke-miterlimit:10;}
	.st9{display:inline;fill:none;stroke:#F38D86;stroke-width:3;stroke-miterlimit:10;}
	.st10{display:inline;fill:none;}
	.st11{display:inline;fill:#58595B;}
	.st12{font-family:'ProximaNovaT-Thin';}
	.st13{font-size:13px;}
	.st14{fill:#58595B;}
	.st15{fill:none;stroke:#CDE3F6;stroke-width:3;stroke-miterlimit:10;}
	.st16{fill:none;stroke:#FBE8E6;stroke-width:3;stroke-miterlimit:10;}
	.st17{fill:none;stroke:#71A9DB;stroke-width:3;stroke-miterlimit:10;}
	.st18{fill:none;stroke:#F38D86;stroke-width:3;stroke-miterlimit:10;}
</style>
<g id="Layer_1" class="st0">
	<line class="st1" x1="180" y1="48.3" x2="241.5" y2="48.3"/>
	<line class="st2" x1="252" y1="48.3" x2="313.5" y2="48.3"/>
	<g class="st3">
		<g>
			<line class="st4" x1="180" y1="74" x2="181" y2="74"/>
			<line class="st5" x1="186.8" y1="74" x2="237.7" y2="74"/>
			<line class="st4" x1="240.5" y1="74" x2="241.5" y2="74"/>
		</g>
	</g>
	<g class="st3">
		<g>
			<line class="st6" x1="252" y1="74" x2="253" y2="74"/>
			<line class="st7" x1="258.8" y1="74" x2="309.7" y2="74"/>
			<line class="st6" x1="312.5" y1="74" x2="313.5" y2="74"/>
		</g>
	</g>
	<line class="st8" x1="180" y1="22.6" x2="241.5" y2="22.6"/>
	<line class="st9" x1="252" y1="22.6" x2="313.5" y2="22.6"/>
	<rect x="2.4" y="17.6" class="st10" width="151" height="22"/>
	<text transform="matrix(1 0 0 1 2.4502 26.2423)" class="st11 st12 st13">Grown since March 2016</text>
	<rect x="180" y="2.1" class="st10" width="61.5" height="22"/>
	<text transform="matrix(1 0 0 1 200.5547 10.7953)" class="st11 st12 st13">Left</text>
	<rect x="252" y="2.1" class="st10" width="61.5" height="22"/>
	<text transform="matrix(1 0 0 1 268.9209 10.7953)" class="st11 st12 st13">Right</text>
	<rect x="2.4" y="43" class="st10" width="159.6" height="16"/>
	<text transform="matrix(1 0 0 1 2.4499 51.6895)" class="st11 st12 st13">Shrunken since March 2016</text>
	<rect x="2.4" y="67.5" class="st10" width="144.5" height="33"/>
	<text transform="matrix(1 0 0 1 2.4499 76.1272)" class="st3"><tspan x="0" y="0" class="st14 st12 st13">No data available in </tspan><tspan x="0" y="14" class="st14 st12 st13">March 2016</tspan></text>
</g>
<g id="Layer_1_copy">
	<line class="st15" x1="180" y1="48.3" x2="241.5" y2="48.3"/>
	<line class="st16" x1="252" y1="48.3" x2="313.5" y2="48.3"/>
	<g>
		<g>
			<line class="st4" x1="180" y1="74" x2="181" y2="74"/>
			<line class="st5" x1="186.8" y1="74" x2="237.7" y2="74"/>
			<line class="st4" x1="240.5" y1="74" x2="241.5" y2="74"/>
		</g>
	</g>
	<g>
		<g>
			<line class="st6" x1="252" y1="74" x2="253" y2="74"/>
			<line class="st7" x1="258.8" y1="74" x2="309.7" y2="74"/>
			<line class="st6" x1="312.5" y1="74" x2="313.5" y2="74"/>
		</g>
	</g>
	<line class="st17" x1="180" y1="22.6" x2="241.5" y2="22.6"/>
	<line class="st18" x1="252" y1="22.6" x2="313.5" y2="22.6"/>
	<g>
		<path class="st14" d="M3.3,21.9c0-2.7,1.9-4.5,4.3-4.5c1.3,0,2.3,0.5,3.2,1.3l-0.3,0.3c-0.7-0.8-1.7-1.2-2.9-1.2
			c-2.2,0-3.9,1.7-3.9,4.1c0,2.4,1.7,4.1,3.9,4.1c1.3,0,2.2-0.6,2.8-1.2v-2.4H6.8v-0.4h4V25c-0.7,0.8-1.9,1.4-3.2,1.4
			C5.2,26.4,3.3,24.6,3.3,21.9z"/>
		<path class="st14" d="M12.8,26.2V20h0.4v1.1c0.6-0.7,1.2-1.3,2.2-1.3v0.5c-0.1,0-0.2,0-0.3,0c-0.7,0-1.6,0.7-1.8,1.2v4.7H12.8z"/>
		<path class="st14" d="M16.4,23.1c0-1.8,1.2-3.3,2.9-3.3c1.8,0,2.9,1.4,2.9,3.3s-1.1,3.3-2.9,3.3C17.5,26.4,16.4,24.9,16.4,23.1z
			 M21.8,23.1c0-1.5-0.9-2.9-2.5-2.9c-1.6,0-2.5,1.4-2.5,2.9c0,1.5,0.9,3,2.5,3C20.9,26,21.8,24.6,21.8,23.1z"/>
		<path class="st14" d="M29.5,26.2l-1.9-5.7l-1.9,5.7h-0.3L23.3,20h0.4l1.8,5.7l1.9-5.7h0.3l1.9,5.7l1.8-5.7h0.4l-2.1,6.3H29.5z"/>
		<path class="st14" d="M37.5,26.2v-4.4c0-1.3-0.6-1.7-1.6-1.7c-0.9,0-1.8,0.6-2.2,1.2v4.9h-0.4V20h0.4v1c0.5-0.6,1.4-1.1,2.3-1.1
			c1.2,0,2,0.6,2,2.1v4.4H37.5z"/>
		<path class="st14" d="M43,25.4l0.3-0.3c0.4,0.5,1.1,0.9,2,0.9c1.2,0,1.9-0.6,1.9-1.5c0-1.9-4-0.9-4-3.1c0-0.9,0.8-1.7,2.1-1.7
			c1.1,0,1.8,0.4,2.2,0.9L47.1,21c-0.4-0.5-1-0.9-1.9-0.9c-1.1,0-1.7,0.6-1.7,1.3c0,1.8,4,0.7,4,3.1c0,1-0.7,1.8-2.2,1.8
			C44.3,26.4,43.6,26.1,43,25.4z"/>
		<path class="st14" d="M49.2,18.5c0-0.2,0.2-0.4,0.4-0.4c0.2,0,0.4,0.2,0.4,0.4s-0.2,0.4-0.4,0.4C49.4,18.9,49.2,18.7,49.2,18.5z
			 M49.4,26.2V20h0.4v6.3H49.4z"/>
		<path class="st14" d="M56.3,26.2v-4.4c0-1.3-0.6-1.7-1.6-1.7c-0.9,0-1.8,0.6-2.2,1.2v4.9h-0.4V20h0.4v1c0.5-0.6,1.4-1.1,2.3-1.1
			c1.2,0,2,0.6,2,2.1v4.4H56.3z"/>
		<path class="st14" d="M58.6,23.1c0-1.8,1.1-3.3,3-3.3c1,0,1.6,0.4,2.1,1.1l-0.3,0.2c-0.5-0.7-1.1-0.9-1.8-0.9
			c-1.6,0-2.6,1.3-2.6,2.9s0.9,3,2.6,3c0.7,0,1.3-0.3,1.8-0.9l0.3,0.2c-0.5,0.7-1.1,1.1-2.1,1.1C59.7,26.4,58.6,24.9,58.6,23.1z"/>
		<path class="st14" d="M65,23.1c0-1.8,1.3-3.3,3-3.3c1.9,0,2.9,1.5,2.9,3.3v0.1h-5.4c0,1.5,1,2.8,2.6,2.8c0.9,0,1.6-0.3,2.2-0.9
			l0.2,0.2c-0.6,0.7-1.4,1.1-2.4,1.1C66.3,26.4,65,25,65,23.1z M67.9,20.2c-1.6,0-2.5,1.5-2.5,2.7h5C70.4,21.7,69.6,20.2,67.9,20.2z
			"/>
		<path class="st14" d="M83.5,26.2v-8.2l-3.4,8.2H80l-3.4-8.2v8.2h-0.4v-8.7h0.7l3.2,7.8l3.2-7.8h0.7v8.7H83.5z"/>
		<path class="st14" d="M90.2,26.2v-0.8c-0.6,0.6-1.3,0.9-2.2,0.9c-1.1,0-2.2-0.8-2.2-2.1c0-1.3,1.1-2.1,2.2-2.1
			c0.9,0,1.6,0.3,2.2,0.9v-1.4c0-1-0.8-1.6-1.8-1.6c-0.8,0-1.4,0.3-2,1l-0.3-0.3c0.6-0.7,1.3-1.1,2.3-1.1c1.2,0,2.2,0.6,2.2,1.9v4.5
			H90.2z M90.2,25.1v-1.6c-0.5-0.6-1.2-1-2.1-1c-1.1,0-1.9,0.8-1.9,1.7S87,26,88.1,26C89,26,89.7,25.7,90.2,25.1z"/>
		<path class="st14" d="M92.8,26.2V20h0.4v1.1c0.6-0.7,1.2-1.3,2.2-1.3v0.5c-0.1,0-0.2,0-0.3,0c-0.7,0-1.6,0.7-1.8,1.2v4.7H92.8z"/>
		<path class="st14" d="M96.4,23.1c0-1.8,1.1-3.3,3-3.3c1,0,1.6,0.4,2.1,1.1l-0.3,0.2c-0.5-0.7-1.1-0.9-1.8-0.9
			c-1.6,0-2.6,1.3-2.6,2.9s0.9,3,2.6,3c0.7,0,1.3-0.3,1.8-0.9l0.3,0.2c-0.5,0.7-1.1,1.1-2.1,1.1C97.6,26.4,96.4,24.9,96.4,23.1z"/>
		<path class="st14" d="M107.4,26.2v-4.4c0-1.3-0.7-1.7-1.6-1.7c-0.9,0-1.8,0.6-2.2,1.2v4.9h-0.4v-8.7h0.4V21
			c0.5-0.6,1.4-1.1,2.3-1.1c1.2,0,2,0.5,2,2v4.4H107.4z"/>
		<path class="st14" d="M113.1,26.2v-0.4c2.8-2.3,5-4.2,5-6.1c0-1.4-1.1-2-2.2-2c-1.1,0-2,0.5-2.4,1.2l-0.3-0.2
			c0.5-0.8,1.5-1.3,2.7-1.3c1.1,0,2.6,0.6,2.6,2.4c0,2-2.3,3.9-4.8,6.1h4.9v0.4H113.1z"/>
		<path class="st14" d="M120.7,21.9c0-2,0.8-4.5,3.1-4.5c2.3,0,3.1,2.5,3.1,4.5c0,2-0.8,4.5-3.1,4.5
			C121.5,26.4,120.7,23.9,120.7,21.9z M126.4,21.9c0-1.8-0.6-4.1-2.6-4.1c-2,0-2.6,2.2-2.6,4.1c0,1.8,0.6,4.1,2.6,4.1
			C125.7,26,126.4,23.7,126.4,21.9z"/>
		<path class="st14" d="M129.7,26.2v-8.1l-1.4,1.5l-0.3-0.3l1.7-1.8h0.4v8.7H129.7z"/>
		<path class="st14" d="M132.1,21.9c0-2.1,0.8-4.5,3.1-4.5c1.2,0,1.8,0.5,2.3,1.2l-0.3,0.3c-0.4-0.6-0.9-1.1-2-1.1
			c-2,0-2.7,2.2-2.7,4.2c0,0.2,0,0.3,0,0.5c0.4-0.6,1.4-1.5,2.6-1.5c1.6,0,2.7,0.9,2.7,2.7c0,1.3-1,2.7-2.8,2.7
			C132.9,26.4,132.1,24.2,132.1,21.9z M137.5,23.7c0-1.6-1-2.3-2.3-2.3c-1,0-2.1,0.7-2.6,1.7c0.1,1.3,0.8,3,2.5,3
			C136.8,26,137.5,24.7,137.5,23.7z"/>
	</g>
	<g>
		<path class="st14" d="M201.9,10.8V2.1h0.4v8.3h4.4v0.4H201.9z"/>
		<path class="st14" d="M207.6,7.6c0-1.8,1.3-3.3,3-3.3c1.9,0,2.9,1.5,2.9,3.3v0.1h-5.4c0,1.5,1,2.8,2.6,2.8c0.9,0,1.6-0.3,2.2-0.9
			l0.2,0.2c-0.6,0.7-1.4,1.1-2.4,1.1C208.9,11,207.6,9.6,207.6,7.6z M210.6,4.7c-1.6,0-2.5,1.5-2.5,2.7h5
			C213.1,6.2,212.3,4.7,210.6,4.7z"/>
		<path class="st14" d="M215.6,10.8V4.9h-1V4.5h1V3.9c0-1.2,0.6-1.9,1.6-1.9c0.4,0,0.7,0.1,1.1,0.4L218,2.7
			c-0.2-0.2-0.5-0.4-0.8-0.4c-0.8,0-1.2,0.6-1.2,1.5v0.7h1.3v0.4H216v5.9H215.6z"/>
		<path class="st14" d="M218.7,9.7V4.9h-1V4.5h1V2.8h0.4v1.7h1.3v0.4h-1.3v4.8c0,0.5,0.2,0.9,0.7,0.9c0.3,0,0.6-0.2,0.7-0.3l0.2,0.3
			c-0.2,0.2-0.5,0.4-1,0.4C219,11,218.7,10.5,218.7,9.7z"/>
	</g>
	<g>
		<path class="st14" d="M275.2,10.8l-2.6-3.7h-2.1v3.7h-0.4V2.1h3c1.4,0,2.6,0.9,2.6,2.5c0,1.6-1.2,2.5-2.6,2.5l2.7,3.7H275.2z
			 M275.2,4.6c0-1.2-0.8-2.1-2.1-2.1h-2.6v4.1h2.6C274.3,6.7,275.2,5.8,275.2,4.6z"/>
		<path class="st14" d="M277.4,3.1c0-0.2,0.2-0.4,0.4-0.4c0.2,0,0.4,0.2,0.4,0.4s-0.2,0.4-0.4,0.4C277.6,3.4,277.4,3.3,277.4,3.1z
			 M277.6,10.8V4.5h0.4v6.3H277.6z"/>
		<path class="st14" d="M280.3,12.4l0.3-0.3c0.5,0.7,1.1,0.9,2.1,0.9c1.2,0,2.3-0.6,2.3-2.2V9.7c-0.4,0.7-1.3,1.2-2.3,1.2
			c-1.7,0-2.8-1.3-2.8-3.3c0-2,1.1-3.3,2.8-3.3c0.9,0,1.8,0.5,2.3,1.2V4.5h0.4v6.3c0,1.8-1.1,2.5-2.7,2.5
			C281.6,13.3,281,13.2,280.3,12.4z M284.9,9.4V6c-0.4-0.7-1.3-1.3-2.3-1.3c-1.5,0-2.4,1.3-2.4,3s0.8,3,2.4,3
			C283.6,10.6,284.5,10,284.9,9.4z"/>
		<path class="st14" d="M291.8,10.8V6.4c0-1.3-0.6-1.7-1.6-1.7c-0.9,0-1.8,0.6-2.2,1.2v4.9h-0.4V2.1h0.4v3.4
			c0.5-0.6,1.4-1.1,2.3-1.1c1.2,0,2,0.5,2,2v4.4H291.8z"/>
		<path class="st14" d="M294.5,9.7V4.9h-1V4.5h1V2.8h0.4v1.7h1.3v0.4h-1.3v4.8c0,0.5,0.2,0.9,0.7,0.9c0.3,0,0.6-0.2,0.7-0.3l0.2,0.3
			c-0.2,0.2-0.5,0.4-1,0.4C294.8,11,294.5,10.5,294.5,9.7z"/>
	</g>
	<g>
		<path class="st14" d="M3.1,50.5l0.3-0.3c0.5,0.6,1.4,1.3,2.7,1.3c2,0,2.5-1.1,2.5-2c0-2.9-5.3-1.4-5.3-4.4c0-1.4,1.3-2.2,2.7-2.2
			c1.3,0,2.2,0.5,2.8,1.2l-0.3,0.3c-0.6-0.8-1.5-1.1-2.5-1.1c-1.3,0-2.3,0.8-2.3,1.8c0,2.5,5.3,1.2,5.3,4.4c0,1-0.6,2.4-3,2.4
			C4.8,51.8,3.8,51.3,3.1,50.5z"/>
		<path class="st14" d="M15.3,51.7v-4.4c0-1.3-0.7-1.7-1.6-1.7c-0.9,0-1.8,0.6-2.2,1.2v4.9H11V43h0.4v3.4c0.5-0.6,1.4-1.1,2.3-1.1
			c1.2,0,2,0.5,2,2v4.4H15.3z"/>
		<path class="st14" d="M17.9,51.7v-6.3h0.4v1.1c0.6-0.7,1.2-1.3,2.2-1.3v0.5c-0.1,0-0.2,0-0.3,0c-0.7,0-1.6,0.7-1.8,1.2v4.7H17.9z"
			/>
		<path class="st14" d="M26.1,51.7v-1c-0.5,0.6-1.4,1.1-2.3,1.1c-1.2,0-2-0.5-2-2v-4.4h0.4v4.4c0,1.3,0.7,1.7,1.6,1.7
			c0.9,0,1.8-0.5,2.2-1.1v-4.9h0.4v6.3H26.1z"/>
		<path class="st14" d="M33,51.7v-4.4c0-1.3-0.6-1.7-1.6-1.7c-0.9,0-1.8,0.6-2.2,1.2v4.9h-0.4v-6.3h0.4v1c0.5-0.6,1.4-1.1,2.3-1.1
			c1.2,0,2,0.6,2,2.1v4.4H33z"/>
		<path class="st14" d="M40,51.7l-2.8-3.2L36,49.7v2h-0.4V43H36v6.2l4.1-3.8h0.6l-3.1,2.8l3,3.4H40z"/>
		<path class="st14" d="M41.7,48.5c0-1.8,1.3-3.3,3-3.3c1.9,0,2.9,1.5,2.9,3.3v0.1h-5.4c0,1.5,1,2.8,2.6,2.8c0.9,0,1.6-0.3,2.2-0.9
			l0.2,0.2c-0.6,0.7-1.4,1.1-2.4,1.1C43,51.8,41.7,50.5,41.7,48.5z M44.6,45.6c-1.6,0-2.5,1.5-2.5,2.7h5
			C47.1,47.1,46.3,45.6,44.6,45.6z"/>
		<path class="st14" d="M53.7,51.7v-4.4c0-1.3-0.6-1.7-1.6-1.7c-0.9,0-1.8,0.6-2.2,1.2v4.9h-0.4v-6.3h0.4v1c0.5-0.6,1.4-1.1,2.3-1.1
			c1.2,0,2,0.6,2,2.1v4.4H53.7z"/>
		<path class="st14" d="M59.2,50.8l0.3-0.3c0.4,0.5,1.1,0.9,2,0.9c1.2,0,1.9-0.6,1.9-1.5c0-1.9-4-0.9-4-3.1c0-0.9,0.8-1.7,2.1-1.7
			c1.1,0,1.8,0.4,2.2,0.9l-0.3,0.3c-0.4-0.5-1-0.9-1.9-0.9c-1.1,0-1.7,0.6-1.7,1.3c0,1.8,4,0.7,4,3.1c0,1-0.7,1.8-2.2,1.8
			C60.5,51.8,59.8,51.6,59.2,50.8z"/>
		<path class="st14" d="M65.4,44c0-0.2,0.2-0.4,0.4-0.4c0.2,0,0.4,0.2,0.4,0.4s-0.2,0.4-0.4,0.4C65.6,44.3,65.4,44.2,65.4,44z
			 M65.6,51.7v-6.3H66v6.3H65.6z"/>
		<path class="st14" d="M72.5,51.7v-4.4c0-1.3-0.6-1.7-1.6-1.7c-0.9,0-1.8,0.6-2.2,1.2v4.9h-0.4v-6.3h0.4v1c0.5-0.6,1.4-1.1,2.3-1.1
			c1.2,0,2,0.6,2,2.1v4.4H72.5z"/>
		<path class="st14" d="M74.8,48.5c0-1.8,1.1-3.3,3-3.3c1,0,1.6,0.4,2.1,1.1l-0.3,0.2c-0.5-0.7-1.1-0.9-1.8-0.9
			c-1.6,0-2.6,1.3-2.6,2.9c0,1.6,0.9,3,2.6,3c0.7,0,1.3-0.3,1.8-0.9l0.3,0.2c-0.5,0.7-1.1,1.1-2.1,1.1
			C75.9,51.8,74.8,50.4,74.8,48.5z"/>
		<path class="st14" d="M81.2,48.5c0-1.8,1.3-3.3,3-3.3c1.9,0,2.9,1.5,2.9,3.3v0.1h-5.4c0,1.5,1,2.8,2.6,2.8c0.9,0,1.6-0.3,2.2-0.9
			l0.2,0.2c-0.6,0.7-1.4,1.1-2.4,1.1C82.4,51.8,81.2,50.5,81.2,48.5z M84.1,45.6c-1.6,0-2.5,1.5-2.5,2.7h5
			C86.6,47.1,85.8,45.6,84.1,45.6z"/>
		<path class="st14" d="M99.6,51.7v-8.2l-3.4,8.2h-0.1l-3.4-8.2v8.2h-0.4V43H93l3.2,7.8l3.2-7.8h0.7v8.7H99.6z"/>
		<path class="st14" d="M106.4,51.7v-0.8c-0.6,0.6-1.3,0.9-2.2,0.9c-1.1,0-2.2-0.8-2.2-2.1s1.1-2.1,2.2-2.1c0.9,0,1.6,0.3,2.2,0.9
			v-1.4c0-1-0.8-1.6-1.8-1.6c-0.8,0-1.4,0.3-2,1l-0.3-0.3c0.6-0.7,1.3-1.1,2.3-1.1c1.2,0,2.2,0.6,2.2,1.9v4.5H106.4z M106.4,50.5V49
			c-0.5-0.6-1.2-1-2.1-1c-1.1,0-1.9,0.8-1.9,1.7s0.7,1.7,1.9,1.7C105.1,51.5,105.9,51.2,106.4,50.5z"/>
		<path class="st14" d="M109,51.7v-6.3h0.4v1.1c0.6-0.7,1.2-1.3,2.2-1.3v0.5c-0.1,0-0.2,0-0.3,0c-0.7,0-1.6,0.7-1.8,1.2v4.7H109z"/>
		<path class="st14" d="M112.6,48.5c0-1.8,1.1-3.3,3-3.3c1,0,1.6,0.4,2.1,1.1l-0.3,0.2c-0.5-0.7-1.1-0.9-1.8-0.9
			c-1.6,0-2.6,1.3-2.6,2.9c0,1.6,0.9,3,2.6,3c0.7,0,1.3-0.3,1.8-0.9l0.3,0.2c-0.5,0.7-1.1,1.1-2.1,1.1
			C113.8,51.8,112.6,50.4,112.6,48.5z"/>
		<path class="st14" d="M123.6,51.7v-4.4c0-1.3-0.7-1.7-1.6-1.7c-0.9,0-1.8,0.6-2.2,1.2v4.9h-0.4V43h0.4v3.4
			c0.5-0.6,1.4-1.1,2.3-1.1c1.2,0,2,0.5,2,2v4.4H123.6z"/>
		<path class="st14" d="M129.2,51.7v-0.4c2.8-2.3,5-4.2,5-6.1c0-1.4-1.1-2-2.2-2c-1.1,0-2,0.5-2.4,1.2l-0.3-0.2
			c0.5-0.8,1.5-1.3,2.7-1.3c1.1,0,2.6,0.6,2.6,2.4c0,2-2.3,3.9-4.8,6.1h4.9v0.4H129.2z"/>
		<path class="st14" d="M136.8,47.4c0-2,0.8-4.5,3.1-4.5c2.3,0,3.1,2.5,3.1,4.5c0,2-0.8,4.5-3.1,4.5
			C137.6,51.8,136.8,49.4,136.8,47.4z M142.5,47.4c0-1.8-0.6-4.1-2.6-4.1c-2,0-2.6,2.2-2.6,4.1c0,1.8,0.6,4.1,2.6,4.1
			C141.9,51.5,142.5,49.2,142.5,47.4z"/>
		<path class="st14" d="M145.9,51.7v-8.1l-1.4,1.5l-0.3-0.3l1.7-1.8h0.4v8.7H145.9z"/>
		<path class="st14" d="M148.3,47.4c0-2.1,0.8-4.5,3.1-4.5c1.2,0,1.8,0.5,2.3,1.2l-0.3,0.3c-0.4-0.6-0.9-1.1-2-1.1
			c-2,0-2.7,2.2-2.7,4.2c0,0.2,0,0.3,0,0.5c0.4-0.6,1.4-1.5,2.6-1.5c1.6,0,2.7,0.9,2.7,2.7c0,1.3-1,2.7-2.8,2.7
			C149.1,51.8,148.3,49.6,148.3,47.4z M153.7,49.1c0-1.6-1-2.3-2.3-2.3c-1,0-2.1,0.7-2.6,1.7c0.1,1.3,0.8,3,2.5,3
			C152.9,51.5,153.7,50.2,153.7,49.1z"/>
	</g>
	<g>
		<path class="st14" d="M9.9,76.1l-5.9-8v8H3.6v-8.7H4l5.9,7.9v-7.9h0.4v8.7H9.9z"/>
		<path class="st14" d="M12.2,73c0-1.8,1.2-3.3,2.9-3.3c1.8,0,2.9,1.4,2.9,3.3c0,1.8-1.1,3.3-2.9,3.3C13.4,76.3,12.2,74.8,12.2,73z
			 M17.6,73c0-1.5-0.9-2.9-2.5-2.9c-1.6,0-2.5,1.4-2.5,2.9c0,1.5,0.9,3,2.5,3C16.7,75.9,17.6,74.5,17.6,73z"/>
		<path class="st14" d="M28.1,76.1v-1.1c-0.4,0.7-1.3,1.2-2.3,1.2C24.1,76.3,23,75,23,73c0-2,1.1-3.3,2.8-3.3c0.9,0,1.8,0.5,2.3,1.2
			v-3.5h0.4v8.7H28.1z M28.1,74.7v-3.4c-0.4-0.7-1.3-1.3-2.3-1.3c-1.5,0-2.4,1.3-2.4,3s0.8,2.9,2.4,2.9
			C26.8,75.9,27.7,75.3,28.1,74.7z"/>
		<path class="st14" d="M34.7,76.1v-0.8c-0.6,0.6-1.3,0.9-2.2,0.9c-1.1,0-2.2-0.8-2.2-2.1c0-1.3,1.1-2.1,2.2-2.1
			c0.9,0,1.6,0.3,2.2,0.9v-1.4c0-1-0.8-1.6-1.8-1.6c-0.8,0-1.4,0.3-2,1l-0.3-0.3c0.6-0.7,1.3-1.1,2.3-1.1c1.2,0,2.2,0.6,2.2,1.9v4.5
			H34.7z M34.7,75v-1.6c-0.5-0.6-1.2-1-2.1-1c-1.1,0-1.9,0.8-1.9,1.7c0,1,0.7,1.7,1.9,1.7C33.5,75.9,34.3,75.6,34.7,75z"/>
		<path class="st14" d="M37.4,75v-4.8h-1v-0.4h1v-1.7h0.4v1.7h1.3v0.4h-1.3V75c0,0.5,0.2,0.9,0.7,0.9c0.3,0,0.6-0.2,0.7-0.3l0.2,0.3
			c-0.2,0.2-0.5,0.4-1,0.4C37.8,76.3,37.4,75.8,37.4,75z"/>
		<path class="st14" d="M44.8,76.1v-0.8c-0.6,0.6-1.3,0.9-2.2,0.9c-1.1,0-2.2-0.8-2.2-2.1c0-1.3,1.1-2.1,2.2-2.1
			c0.9,0,1.6,0.3,2.2,0.9v-1.4c0-1-0.8-1.6-1.8-1.6c-0.8,0-1.4,0.3-2,1l-0.3-0.3c0.6-0.7,1.3-1.1,2.3-1.1c1.2,0,2.2,0.6,2.2,1.9v4.5
			H44.8z M44.8,75v-1.6c-0.5-0.6-1.2-1-2.1-1c-1.1,0-1.9,0.8-1.9,1.7c0,1,0.7,1.7,1.9,1.7C43.5,75.9,44.3,75.6,44.8,75z"/>
		<path class="st14" d="M54.8,76.1v-0.8c-0.6,0.6-1.3,0.9-2.2,0.9c-1.1,0-2.2-0.8-2.2-2.1c0-1.3,1.1-2.1,2.2-2.1
			c0.9,0,1.6,0.3,2.2,0.9v-1.4c0-1-0.8-1.6-1.8-1.6c-0.8,0-1.4,0.3-2,1l-0.3-0.3c0.6-0.7,1.3-1.1,2.3-1.1c1.2,0,2.2,0.6,2.2,1.9v4.5
			H54.8z M54.8,75v-1.6c-0.5-0.6-1.2-1-2.1-1c-1.1,0-1.9,0.8-1.9,1.7c0,1,0.7,1.7,1.9,1.7C53.6,75.9,54.3,75.6,54.8,75z"/>
		<path class="st14" d="M59.2,76.1l-2.7-6.3h0.5l2.5,5.8l2.5-5.8h0.5l-2.7,6.3H59.2z"/>
		<path class="st14" d="M67.6,76.1v-0.8c-0.6,0.6-1.3,0.9-2.2,0.9c-1.1,0-2.2-0.8-2.2-2.1c0-1.3,1.1-2.1,2.2-2.1
			c0.9,0,1.6,0.3,2.2,0.9v-1.4c0-1-0.8-1.6-1.8-1.6c-0.8,0-1.4,0.3-2,1l-0.3-0.3c0.6-0.7,1.3-1.1,2.3-1.1c1.2,0,2.2,0.6,2.2,1.9v4.5
			H67.6z M67.6,75v-1.6c-0.5-0.6-1.2-1-2.1-1c-1.1,0-1.9,0.8-1.9,1.7c0,1,0.7,1.7,1.9,1.7C66.4,75.9,67.1,75.6,67.6,75z"/>
		<path class="st14" d="M70.1,68.4c0-0.2,0.2-0.4,0.4-0.4c0.2,0,0.4,0.2,0.4,0.4s-0.2,0.4-0.4,0.4C70.2,68.8,70.1,68.6,70.1,68.4z
			 M70.2,76.1v-6.3h0.4v6.3H70.2z"/>
		<path class="st14" d="M72.9,76.1v-8.7h0.4v8.7H72.9z"/>
		<path class="st14" d="M79.6,76.1v-0.8c-0.6,0.6-1.3,0.9-2.2,0.9c-1.1,0-2.2-0.8-2.2-2.1c0-1.3,1.1-2.1,2.2-2.1
			c0.9,0,1.6,0.3,2.2,0.9v-1.4c0-1-0.8-1.6-1.8-1.6c-0.8,0-1.4,0.3-2,1l-0.3-0.3c0.6-0.7,1.3-1.1,2.3-1.1c1.2,0,2.2,0.6,2.2,1.9v4.5
			H79.6z M79.6,75v-1.6c-0.5-0.6-1.2-1-2.1-1c-1.1,0-1.9,0.8-1.9,1.7c0,1,0.7,1.7,1.9,1.7C78.3,75.9,79.1,75.6,79.6,75z"/>
		<path class="st14" d="M82.2,76.1v-8.7h0.4v3.5c0.5-0.7,1.3-1.2,2.3-1.2c1.7,0,2.8,1.3,2.8,3.3c0,2-1.1,3.3-2.8,3.3
			c-1,0-1.8-0.6-2.3-1.2v1.1H82.2z M84.8,75.9c1.5,0,2.4-1.3,2.4-2.9s-0.8-3-2.4-3c-1,0-1.9,0.6-2.3,1.3v3.4
			C83,75.3,83.9,75.9,84.8,75.9z"/>
		<path class="st14" d="M89.5,76.1v-8.7h0.4v8.7H89.5z"/>
		<path class="st14" d="M91.8,73c0-1.8,1.3-3.3,3-3.3c1.9,0,2.9,1.5,2.9,3.3v0.1h-5.4c0,1.5,1,2.8,2.6,2.8c0.9,0,1.6-0.3,2.2-0.9
			l0.2,0.2c-0.6,0.7-1.4,1.1-2.4,1.1C93.1,76.3,91.8,74.9,91.8,73z M94.8,70c-1.6,0-2.5,1.5-2.5,2.7h5C97.3,71.6,96.5,70,94.8,70z"
			/>
		<path class="st14" d="M102.8,68.4c0-0.2,0.2-0.4,0.4-0.4c0.2,0,0.4,0.2,0.4,0.4s-0.2,0.4-0.4,0.4C103,68.8,102.8,68.6,102.8,68.4z
			 M103,76.1v-6.3h0.4v6.3H103z"/>
		<path class="st14" d="M109.8,76.1v-4.4c0-1.3-0.7-1.7-1.6-1.7c-0.9,0-1.8,0.6-2.2,1.2v4.9h-0.4v-6.3h0.4v1
			c0.5-0.6,1.4-1.1,2.3-1.1c1.2,0,2,0.6,2,2.1v4.4H109.8z"/>
		<path class="st14" d="M10.9,90.1V82l-3.4,8.2H7.4L4,82v8.2H3.6v-8.7h0.7l3.2,7.8l3.2-7.8h0.7v8.7H10.9z"/>
		<path class="st14" d="M17.6,90.1v-0.8c-0.6,0.6-1.3,0.9-2.2,0.9c-1.1,0-2.2-0.8-2.2-2.1c0-1.3,1.1-2.1,2.2-2.1
			c0.9,0,1.6,0.3,2.2,0.9v-1.4c0-1-0.8-1.6-1.8-1.6c-0.8,0-1.4,0.3-2,1l-0.3-0.3c0.6-0.7,1.3-1.1,2.3-1.1c1.2,0,2.2,0.6,2.2,1.9v4.5
			H17.6z M17.6,89v-1.6c-0.5-0.6-1.2-1-2.1-1c-1.1,0-1.9,0.8-1.9,1.7c0,1,0.7,1.7,1.9,1.7C16.4,89.9,17.2,89.6,17.6,89z"/>
		<path class="st14" d="M20.3,90.1v-6.3h0.4V85c0.6-0.7,1.2-1.3,2.2-1.3v0.5c-0.1,0-0.2,0-0.3,0c-0.7,0-1.6,0.7-1.8,1.2v4.7H20.3z"
			/>
		<path class="st14" d="M23.9,87c0-1.8,1.1-3.3,3-3.3c1,0,1.6,0.4,2.1,1.1L28.7,85c-0.5-0.7-1.1-0.9-1.8-0.9c-1.6,0-2.6,1.3-2.6,2.9
			c0,1.6,0.9,3,2.6,3c0.7,0,1.3-0.3,1.8-0.9l0.3,0.2c-0.5,0.7-1.1,1.1-2.1,1.1C25,90.3,23.9,88.8,23.9,87z"/>
		<path class="st14" d="M34.9,90.1v-4.4c0-1.3-0.7-1.7-1.6-1.7c-0.9,0-1.8,0.6-2.2,1.2v4.9h-0.4v-8.7H31v3.4
			c0.5-0.6,1.4-1.1,2.3-1.1c1.2,0,2,0.5,2,2v4.4H34.9z"/>
		<path class="st14" d="M40.5,90.1v-0.4c2.8-2.3,5-4.2,5-6.1c0-1.4-1.1-2-2.2-2c-1.1,0-2,0.5-2.4,1.2l-0.3-0.2
			c0.5-0.8,1.5-1.3,2.7-1.3c1.1,0,2.6,0.6,2.6,2.4c0,2-2.3,3.9-4.8,6.1H46v0.4H40.5z"/>
		<path class="st14" d="M48.1,85.8c0-2,0.8-4.5,3.1-4.5c2.3,0,3.1,2.5,3.1,4.5c0,2-0.8,4.5-3.1,4.5C48.9,90.3,48.1,87.8,48.1,85.8z
			 M53.8,85.8c0-1.8-0.6-4.1-2.6-4.1c-2,0-2.6,2.2-2.6,4.1c0,1.8,0.6,4.1,2.6,4.1C53.2,89.9,53.8,87.6,53.8,85.8z"/>
		<path class="st14" d="M57.2,90.1v-8.1l-1.4,1.5l-0.3-0.3l1.7-1.8h0.4v8.7H57.2z"/>
		<path class="st14" d="M59.6,85.8c0-2.1,0.8-4.5,3.1-4.5c1.2,0,1.8,0.5,2.3,1.2l-0.3,0.3c-0.4-0.6-0.9-1.1-2-1.1
			c-2,0-2.7,2.2-2.7,4.2c0,0.2,0,0.3,0,0.5c0.4-0.6,1.4-1.5,2.6-1.5c1.6,0,2.7,0.9,2.7,2.7c0,1.3-1,2.7-2.8,2.7
			C60.3,90.3,59.6,88.1,59.6,85.8z M65,87.6c0-1.6-1-2.3-2.3-2.3c-1,0-2.1,0.7-2.6,1.7c0.1,1.3,0.8,3,2.5,3
			C64.2,89.9,65,88.6,65,87.6z"/>
	</g>
</g>
</svg>
